<svg width="484" height="324" viewBox="0 0 484 324" fill="none" xmlns="http://www.w3.org/2000/svg">
<g clip-path="url(#clip0_6291_3672)">
<rect x="2" y="2" width="480" height="30" fill="#131316"/>
<path d="M215.067 26V8.48H220.443C222.139 8.48 223.483 8.888 224.475 9.704C225.467 10.504 225.963 11.6 225.963 12.992C225.963 13.776 225.787 14.456 225.435 15.032C225.083 15.608 224.603 16.056 223.995 16.376C223.403 16.696 222.715 16.856 221.931 16.856V16.76C222.779 16.744 223.531 16.904 224.187 17.24C224.859 17.56 225.387 18.04 225.771 18.68C226.171 19.32 226.371 20.096 226.371 21.008C226.371 22.016 226.139 22.896 225.675 23.648C225.211 24.4 224.555 24.984 223.707 25.4C222.875 25.8 221.875 26 220.707 26H215.067ZM217.995 23.504H220.515C221.395 23.504 222.083 23.272 222.579 22.808C223.091 22.328 223.347 21.68 223.347 20.864C223.347 20.048 223.091 19.392 222.579 18.896C222.083 18.384 221.395 18.128 220.515 18.128H217.995V23.504ZM217.995 15.704H220.395C221.195 15.704 221.819 15.496 222.267 15.08C222.731 14.648 222.963 14.064 222.963 13.328C222.963 12.592 222.731 12.016 222.267 11.6C221.819 11.184 221.195 10.976 220.395 10.976H217.995V15.704ZM228.473 26L233.081 19.184L228.785 12.8H232.169L234.209 16.04C234.337 16.232 234.449 16.448 234.545 16.688C234.657 16.928 234.745 17.12 234.809 17.264C234.873 17.12 234.961 16.928 235.073 16.688C235.185 16.448 235.297 16.232 235.409 16.04L237.473 12.8H240.857L236.561 19.184L241.145 26H237.737L235.457 22.376C235.329 22.168 235.209 21.944 235.097 21.704C234.985 21.464 234.889 21.272 234.809 21.128C234.745 21.272 234.657 21.464 234.545 21.704C234.433 21.944 234.313 22.168 234.185 22.376L231.857 26H228.473ZM249.2 26.216C248.08 26.216 247.104 26.008 246.272 25.592C245.456 25.16 244.816 24.56 244.352 23.792C243.904 23.008 243.68 22.088 243.68 21.032V17.768C243.68 16.712 243.904 15.8 244.352 15.032C244.816 14.248 245.456 13.648 246.272 13.232C247.104 12.8 248.08 12.584 249.2 12.584C250.336 12.584 251.312 12.8 252.128 13.232C252.944 13.648 253.576 14.248 254.024 15.032C254.488 15.8 254.72 16.704 254.72 17.744V21.032C254.72 22.088 254.488 23.008 254.024 23.792C253.576 24.56 252.944 25.16 252.128 25.592C251.312 26.008 250.336 26.216 249.2 26.216ZM249.2 23.6C250 23.6 250.616 23.384 251.048 22.952C251.496 22.504 251.72 21.864 251.72 21.032V17.768C251.72 16.92 251.496 16.28 251.048 15.848C250.616 15.416 250 15.2 249.2 15.2C248.416 15.2 247.8 15.416 247.352 15.848C246.904 16.28 246.68 16.92 246.68 17.768V21.032C246.68 21.864 246.904 22.504 247.352 22.952C247.8 23.384 248.416 23.6 249.2 23.6ZM256.991 29.36V23.456H257.879C258.151 23.184 258.431 22.688 258.719 21.968C259.023 21.232 259.183 20.32 259.199 19.232L259.343 12.8H268.583V23.456H270.143V29.36H267.383V26H259.751V29.36H256.991ZM260.927 23.456H265.727V15.416H262.127L262.031 19.232C262.015 20.304 261.879 21.208 261.623 21.944C261.383 22.664 261.151 23.168 260.927 23.456Z" fill="#F2F2F3"/>
</g>
<rect x="1" y="1" width="482" height="32" stroke="#4C4CFF" stroke-width="2" stroke-dasharray="2 2"/>
<rect x="1" y="55" width="482" height="66" rx="33" fill="#2F2F37"/>
<path d="M27.456 94V82.32H34.384V83.952H29.296V87.136H33.824V88.768H29.296V92.368H34.384V94H27.456ZM37.8338 89.568V87.872H42.9538V89.568H37.8338ZM46.0675 94V85.2H47.6195V86.352H47.9395L47.6835 86.672C47.6835 86.1707 47.8168 85.776 48.0835 85.488C48.3608 85.1893 48.7182 85.04 49.1555 85.04C49.6355 85.04 50.0035 85.232 50.2595 85.616C50.5262 85.9893 50.6595 86.5013 50.6595 87.152L50.2915 86.352H50.8675L50.6275 86.672C50.6275 86.1707 50.7662 85.776 51.0435 85.488C51.3208 85.1893 51.6888 85.04 52.1475 85.04C52.6915 85.04 53.1182 85.248 53.4275 85.664C53.7475 86.0693 53.9075 86.6133 53.9075 87.296V94H52.2595V87.36C52.2595 87.0507 52.1902 86.8107 52.0515 86.64C51.9235 86.4693 51.7315 86.384 51.4755 86.384C51.2195 86.384 51.0222 86.4693 50.8835 86.64C50.7448 86.8 50.6755 87.0347 50.6755 87.344V94H49.2995V87.36C49.2995 87.04 49.2302 86.8 49.0915 86.64C48.9528 86.4693 48.7555 86.384 48.4995 86.384C48.2435 86.384 48.0515 86.4693 47.9235 86.64C47.7955 86.8 47.7315 87.0347 47.7315 87.344V94H46.0675ZM58.6533 94.16C57.7466 94.16 57.0266 93.9253 56.4933 93.456C55.9706 92.976 55.7093 92.3253 55.7093 91.504C55.7093 90.6507 55.9919 89.9893 56.5573 89.52C57.1333 89.0507 57.9279 88.816 58.9413 88.816H61.2613V88.032C61.2613 87.584 61.1173 87.232 60.8293 86.976C60.5413 86.72 60.1413 86.592 59.6293 86.592C59.1706 86.592 58.7866 86.6933 58.4773 86.896C58.1786 87.088 58.0026 87.3547 57.9493 87.696H56.1253C56.2213 86.8853 56.5893 86.24 57.2293 85.76C57.8799 85.28 58.6959 85.04 59.6773 85.04C60.7439 85.04 61.5866 85.3067 62.2053 85.84C62.8239 86.3733 63.1333 87.0987 63.1333 88.016V94H61.3093V92.432H61.0053L61.3253 92.048C61.3253 92.6987 61.0799 93.216 60.5893 93.6C60.0986 93.9733 59.4533 94.16 58.6533 94.16ZM59.2453 92.752C59.8319 92.752 60.3119 92.6027 60.6853 92.304C61.0693 91.9947 61.2613 91.6053 61.2613 91.136V90.016H58.9733C58.5466 90.016 58.2053 90.1387 57.9493 90.384C57.6933 90.6187 57.5653 90.9387 57.5653 91.344C57.5653 91.7813 57.7146 92.128 58.0133 92.384C58.3119 92.6293 58.7226 92.752 59.2453 92.752ZM65.623 94V92.304H68.711V86.88H66.023V85.2H70.503V92.304H73.287V94H65.623ZM69.447 83.696C69.0523 83.696 68.743 83.6 68.519 83.408C68.295 83.2053 68.183 82.9333 68.183 82.592C68.183 82.24 68.295 81.9627 68.519 81.76C68.743 81.5573 69.0523 81.456 69.447 81.456C69.8417 81.456 70.151 81.5573 70.375 81.76C70.599 81.9627 70.711 82.24 70.711 82.592C70.711 82.9333 70.599 83.2053 70.375 83.408C70.151 83.6 69.8417 83.696 69.447 83.696ZM80.0808 94C79.5154 94 79.0194 93.888 78.5928 93.664C78.1768 93.4293 77.8514 93.104 77.6168 92.688C77.3821 92.272 77.2648 91.7867 77.2648 91.232V84H74.4168V82.32H79.1368V91.232C79.1368 91.5627 79.2274 91.8293 79.4088 92.032C79.6008 92.224 79.8568 92.32 80.1768 92.32H82.8808V94H80.0808Z" fill="#8585AD"/>
<rect x="25" y="67" width="60" height="42" stroke="#4C4CFF" stroke-width="2" stroke-dasharray="2 2"/>
<rect x="1" y="55" width="482" height="66" rx="33" stroke="#4C4CFF" stroke-width="2" stroke-dasharray="2 2"/>
<rect x="1" y="143" width="482" height="66" rx="33" fill="#2F2F37"/>
<path d="M27.312 182V170.32H34.288V182H32.432V172.048H29.168V182H27.312ZM39.4658 182.16C38.5591 182.16 37.8391 181.925 37.3058 181.456C36.7831 180.976 36.5218 180.325 36.5218 179.504C36.5218 178.651 36.8044 177.989 37.3698 177.52C37.9458 177.051 38.7404 176.816 39.7538 176.816H42.0738V176.032C42.0738 175.584 41.9298 175.232 41.6418 174.976C41.3538 174.72 40.9538 174.592 40.4418 174.592C39.9831 174.592 39.5991 174.693 39.2898 174.896C38.9911 175.088 38.8151 175.355 38.7618 175.696H36.9378C37.0338 174.885 37.4018 174.24 38.0418 173.76C38.6924 173.28 39.5084 173.04 40.4898 173.04C41.5564 173.04 42.3991 173.307 43.0178 173.84C43.6364 174.373 43.9458 175.099 43.9458 176.016V182H42.1218V180.432H41.8178L42.1378 180.048C42.1378 180.699 41.8924 181.216 41.4018 181.6C40.9111 181.973 40.2658 182.16 39.4658 182.16ZM40.0578 180.752C40.6444 180.752 41.1244 180.603 41.4978 180.304C41.8818 179.995 42.0738 179.605 42.0738 179.136V178.016H39.7858C39.3591 178.016 39.0178 178.139 38.7618 178.384C38.5058 178.619 38.3778 178.939 38.3778 179.344C38.3778 179.781 38.5271 180.128 38.8258 180.384C39.1244 180.629 39.5351 180.752 40.0578 180.752ZM46.4675 184.88V173.2H48.3075V174.88H48.7075L48.3075 175.312C48.3075 174.608 48.5208 174.053 48.9475 173.648C49.3848 173.243 49.9662 173.04 50.6915 173.04C51.5768 173.04 52.2808 173.344 52.8035 173.952C53.3368 174.549 53.6035 175.36 53.6035 176.384V178.816C53.6035 179.488 53.4808 180.08 53.2355 180.592C53.0008 181.093 52.6648 181.483 52.2275 181.76C51.8008 182.027 51.2888 182.16 50.6915 182.16C49.9662 182.16 49.3848 181.957 48.9475 181.552C48.5208 181.147 48.3075 180.592 48.3075 179.888L48.7075 180.32H48.2915L48.3395 182.384V184.88H46.4675ZM50.0355 180.544C50.5688 180.544 50.9848 180.389 51.2835 180.08C51.5928 179.76 51.7475 179.312 51.7475 178.736V176.464C51.7475 175.877 51.5928 175.429 51.2835 175.12C50.9848 174.811 50.5688 174.656 50.0355 174.656C49.5128 174.656 49.0968 174.816 48.7875 175.136C48.4888 175.456 48.3395 175.899 48.3395 176.464V178.736C48.3395 179.301 48.4888 179.744 48.7875 180.064C49.0968 180.384 49.5128 180.544 50.0355 180.544ZM59.5813 182.144C58.8453 182.144 58.2053 182.005 57.6613 181.728C57.1279 181.451 56.7119 181.056 56.4133 180.544C56.1146 180.021 55.9653 179.408 55.9653 178.704V176.496C55.9653 175.792 56.1146 175.184 56.4133 174.672C56.7119 174.149 57.1279 173.749 57.6613 173.472C58.2053 173.195 58.8453 173.056 59.5813 173.056C60.3279 173.056 60.9679 173.195 61.5013 173.472C62.0346 173.749 62.4506 174.149 62.7493 174.672C63.0479 175.184 63.1973 175.787 63.1973 176.48V178.704C63.1973 179.408 63.0479 180.021 62.7493 180.544C62.4506 181.056 62.0346 181.451 61.5013 181.728C60.9679 182.005 60.3279 182.144 59.5813 182.144ZM59.5813 180.512C60.1359 180.512 60.5679 180.357 60.8773 180.048C61.1866 179.739 61.3413 179.291 61.3413 178.704V176.496C61.3413 175.899 61.1866 175.451 60.8773 175.152C60.5679 174.843 60.1359 174.688 59.5813 174.688C59.0373 174.688 58.6053 174.843 58.2853 175.152C57.9759 175.451 57.8213 175.899 57.8213 176.496V178.704C57.8213 179.291 57.9759 179.739 58.2853 180.048C58.6053 180.357 59.0373 180.512 59.5813 180.512ZM64.743 182.112V180.4H65.127C65.5217 180.4 65.8097 180.245 65.991 179.936C66.183 179.616 66.2843 179.093 66.295 178.368L66.391 173.2H72.663V182H70.807V174.928H68.231L68.151 178.48C68.1403 179.28 68.023 179.952 67.799 180.496C67.575 181.04 67.2497 181.445 66.823 181.712C66.3963 181.979 65.8683 182.112 65.239 182.112H64.743ZM75.3448 182V173.2H77.2008V176.176H79.5688C80.6034 176.176 81.4194 176.437 82.0168 176.96C82.6141 177.472 82.9128 178.181 82.9128 179.088C82.9128 179.984 82.6088 180.693 82.0008 181.216C81.4034 181.739 80.5928 182 79.5688 182H75.3448ZM77.2008 180.352H79.4888C79.9794 180.352 80.3528 180.245 80.6088 180.032C80.8754 179.808 81.0088 179.493 81.0088 179.088C81.0088 178.683 80.8808 178.373 80.6248 178.16C80.3688 177.936 79.9954 177.824 79.5048 177.824H77.2008V180.352Z" fill="#8585AD"/>
<rect x="25" y="155" width="60" height="42" stroke="#4C4CFF" stroke-width="2" stroke-dasharray="2 2"/>
<path d="M446 168C448.068 168 450.029 168.718 451.737 170.046C453.444 171.365 454.898 173.295 455.941 175.709C456.02 175.893 456.02 176.107 455.941 176.281C453.854 181.11 450.137 184 446 184H445.99C441.863 184 438.146 181.11 436.059 176.281C435.98 176.107 435.98 175.893 436.059 175.709C438.146 170.88 441.863 168 445.99 168H446ZM446 172.121C443.844 172.121 442.098 173.857 442.098 176C442.098 178.133 443.844 179.869 446 179.869C448.146 179.869 449.893 178.133 449.893 176C449.893 173.857 448.146 172.121 446 172.121ZM446.001 173.574C447.338 173.574 448.43 174.66 448.43 175.998C448.43 177.326 447.338 178.412 446.001 178.412C444.655 178.412 443.562 177.326 443.562 175.998C443.562 175.833 443.582 175.678 443.611 175.523H443.66C444.743 175.523 445.621 174.669 445.66 173.603C445.767 173.583 445.884 173.574 446.001 173.574Z" fill="#F2F2F3"/>
<rect x="433" y="163" width="26" height="26" stroke="#4C4CFF" stroke-width="2" stroke-dasharray="2 2"/>
<rect x="409" y="143" width="74" height="66" stroke="#4C4CFF" stroke-width="2" stroke-dasharray="2 2"/>
<rect x="1" y="143" width="482" height="66" rx="33" stroke="#4C4CFF" stroke-width="2" stroke-dasharray="2 2"/>
<g filter="url(#filter0_ddd_6291_3672)">
<rect x="178" y="232" width="128" height="56" rx="28" fill="url(#paint0_linear_6291_3672)"/>
<path d="M219.312 266V254.32H222.816C223.936 254.32 224.821 254.587 225.472 255.12C226.122 255.653 226.448 256.389 226.448 257.328C226.448 257.851 226.33 258.309 226.096 258.704C225.861 259.088 225.541 259.387 225.136 259.6C224.73 259.813 224.266 259.92 223.744 259.92V259.808C224.32 259.797 224.826 259.904 225.264 260.128C225.712 260.352 226.064 260.683 226.32 261.12C226.576 261.557 226.704 262.08 226.704 262.688C226.704 263.36 226.554 263.947 226.256 264.448C225.957 264.949 225.53 265.333 224.976 265.6C224.432 265.867 223.781 266 223.024 266H219.312ZM221.12 264.416H222.896C223.493 264.416 223.968 264.256 224.32 263.936C224.672 263.616 224.848 263.173 224.848 262.608C224.848 262.032 224.672 261.573 224.32 261.232C223.968 260.88 223.493 260.704 222.896 260.704H221.12V264.416ZM221.12 259.168H222.8C223.354 259.168 223.786 259.024 224.096 258.736C224.416 258.437 224.576 258.037 224.576 257.536C224.576 257.024 224.416 256.624 224.096 256.336C223.786 256.048 223.36 255.904 222.816 255.904H221.12V259.168ZM232.409 266.144C231.673 266.144 231.033 266.005 230.489 265.728C229.956 265.451 229.54 265.056 229.241 264.544C228.943 264.021 228.793 263.408 228.793 262.704V260.496C228.793 259.792 228.943 259.184 229.241 258.672C229.54 258.149 229.956 257.749 230.489 257.472C231.033 257.195 231.673 257.056 232.409 257.056C233.156 257.056 233.796 257.195 234.329 257.472C234.863 257.749 235.279 258.149 235.577 258.672C235.876 259.184 236.025 259.787 236.025 260.48V262.704C236.025 263.408 235.876 264.021 235.577 264.544C235.279 265.056 234.863 265.451 234.329 265.728C233.796 266.005 233.156 266.144 232.409 266.144ZM232.409 264.512C232.964 264.512 233.396 264.357 233.705 264.048C234.015 263.739 234.169 263.291 234.169 262.704V260.496C234.169 259.899 234.015 259.451 233.705 259.152C233.396 258.843 232.964 258.688 232.409 258.688C231.865 258.688 231.433 258.843 231.113 259.152C230.804 259.451 230.649 259.899 230.649 260.496V262.704C230.649 263.291 230.804 263.739 231.113 264.048C231.433 264.357 231.865 264.512 232.409 264.512ZM238.515 266V257.2H240.211V261.648C240.211 261.936 240.2 262.267 240.179 262.64C240.158 263.003 240.126 263.36 240.083 263.712C240.051 264.053 240.014 264.352 239.971 264.608L243.187 257.2H245.491V266H243.795V261.552C243.795 261.253 243.806 260.933 243.827 260.592C243.848 260.24 243.875 259.899 243.907 259.568C243.95 259.227 243.987 258.944 244.019 258.72L240.819 266H238.515ZM242.067 255.792C241.256 255.792 240.595 255.579 240.083 255.152C239.582 254.715 239.331 254.144 239.331 253.44H240.771C240.771 253.803 240.888 254.096 241.123 254.32C241.358 254.544 241.667 254.656 242.051 254.656C242.446 254.656 242.76 254.544 242.995 254.32C243.24 254.096 243.363 253.803 243.363 253.44H244.803C244.803 254.144 244.552 254.715 244.051 255.152C243.55 255.579 242.888 255.792 242.067 255.792ZM250.669 266V258.896H247.613V257.2H255.581V258.896H252.525V266H250.669ZM257.703 266V257.2H259.399V261.648C259.399 261.936 259.388 262.267 259.367 262.64C259.345 263.003 259.313 263.36 259.271 263.712C259.239 264.053 259.201 264.352 259.159 264.608L262.375 257.2H264.679V266H262.983V261.552C262.983 261.253 262.993 260.933 263.015 260.592C263.036 260.24 263.063 259.899 263.095 259.568C263.137 259.227 263.175 258.944 263.207 258.72L260.007 266H257.703Z" fill="#F2F2F3"/>
</g>
<defs>
<filter id="filter0_ddd_6291_3672" x="146" y="204" width="192" height="120" filterUnits="userSpaceOnUse" color-interpolation-filters="sRGB">
<feFlood flood-opacity="0" result="BackgroundImageFix"/>
<feColorMatrix in="SourceAlpha" type="matrix" values="0 0 0 0 0 0 0 0 0 0 0 0 0 0 0 0 0 0 127 0" result="hardAlpha"/>
<feOffset dy="4"/>
<feGaussianBlur stdDeviation="16"/>
<feColorMatrix type="matrix" values="0 0 0 0 0.2 0 0 0 0 0.2 0 0 0 0 1 0 0 0 0.5 0"/>
<feBlend mode="normal" in2="BackgroundImageFix" result="effect1_dropShadow_6291_3672"/>
<feColorMatrix in="SourceAlpha" type="matrix" values="0 0 0 0 0 0 0 0 0 0 0 0 0 0 0 0 0 0 127 0" result="hardAlpha"/>
<feMorphology radius="8" operator="dilate" in="SourceAlpha" result="effect2_dropShadow_6291_3672"/>
<feOffset/>
<feGaussianBlur stdDeviation="4"/>
<feColorMatrix type="matrix" values="0 0 0 0 0.2 0 0 0 0 0.2 0 0 0 0 1 0 0 0 0.25 0"/>
<feBlend mode="normal" in2="effect1_dropShadow_6291_3672" result="effect2_dropShadow_6291_3672"/>
<feColorMatrix in="SourceAlpha" type="matrix" values="0 0 0 0 0 0 0 0 0 0 0 0 0 0 0 0 0 0 127 0" result="hardAlpha"/>
<feMorphology radius="8" operator="dilate" in="SourceAlpha" result="effect3_dropShadow_6291_3672"/>
<feOffset/>
<feGaussianBlur stdDeviation="8"/>
<feColorMatrix type="matrix" values="0 0 0 0 0.2 0 0 0 0 0.2 0 0 0 0 1 0 0 0 0.25 0"/>
<feBlend mode="normal" in2="effect2_dropShadow_6291_3672" result="effect3_dropShadow_6291_3672"/>
<feBlend mode="normal" in="SourceGraphic" in2="effect3_dropShadow_6291_3672" result="shape"/>
</filter>
<linearGradient id="paint0_linear_6291_3672" x1="178" y1="288" x2="260.504" y2="192.638" gradientUnits="userSpaceOnUse">
<stop stop-color="#801AB3"/>
<stop offset="1" stop-color="#4C4CFF"/>
</linearGradient>
<clipPath id="clip0_6291_3672">
<rect x="2" y="2" width="480" height="30" fill="white"/>
</clipPath>
</defs>
</svg>
